:SAMPLES-PER-SECOND 24
:FULLY-SPECIFIED
:DEGREES
405
root  -7.72763 39.0401 3.30779 82.9339 19.0193 72.3798
RightUpLeg  -37.66 -51.5176 -37.2369
RightLeg  26.326 1.10506 0.386212
RightFoot  -23.4887 -1.33367 -10.9923
RightToes  -1.46203e-006 3.27826e-006 1.63871e-007
Spine  9.22345 -1.57299 8.31274
Spine1  8.80678 9.26336 -36.5495
HEad  -22.2907 54.7246 -51.7293
LeftShoulder1  2.32894 -3.6157 -26.594
LeftArm  15.3132 1.40868 -25.6252
LeftForeArm  160.454 -64.9818 -157.938
LeftHand  -0.0216917 5.31534 20.1671
RightShoulder  2.24569 4.55576 21.6075
RightArm  -11.8507 -4.29971 14.2496
RightForeArm  122.746 74.7351 136.154
RightHand  -0.921351 1.65572 -15.286
LeftUpLeg  -26.7476 29.9624 29.2057
LeftLeg  74.2979 -9.42448 -30.3097
LeftFoot  8.54379 7.93097 -43.6128
LeftToes  1.24767e-006 1.47042e-008 1.32732e-009
406
root  -7.22303 39.3492 2.5338 82.287 16.7495 69.0651
RightUpLeg  -38.0898 -46.5475 -39.8048
RightLeg  23.0195 -1.0518 -0.707776
RightFoot  -22.5207 -1.1973 -10.6304
RightToes  -1.46203e-006 3.27826e-006 1.63871e-007
Spine  6.95891 -2.73903 5.22288
Spine1  9.94514 6.27754 -30.9872
HEad  -24.0423 57.2178 -52.6479
LeftShoulder1  2.24285 -3.43819 -26.1774
LeftArm  16.878 4.33378 -26.4115
LeftForeArm  164.054 -65.6358 -157.717
LeftHand  -0.0640969 5.03838 18.1744
RightShoulder  2.59541 5.03062 24.3009
RightArm  -12.5517 -16.6208 12.9697
RightForeArm  131.757 70.3633 147.599
RightHand  -0.948146 1.25327 -16.6362
LeftUpLeg  -3.13635 10.4744 37.001
LeftLeg  24.7236 -17.9437 -9.54815
LeftFoot  8.30446 7.25012 -40.5168
LeftToes  1.24767e-006 1.47042e-008 1.32732e-009
407
root  -7.12093 39.5398 1.35746 85.3931 17.8463 69.5377
RightUpLeg  -39.8705 -45.7073 -40.1368
RightLeg  22.6872 -3.41916 -1.78767
RightFoot  -21.6972 -1.16082 -11.1519
RightToes  -1.46203e-006 3.27826e-006 1.63871e-007
Spine  4.5569 -4.75598 -0.890775
Spine1  10.7509 0.800305 -19.8666
HEad  -27.3482 57.1428 -49.7413
LeftShoulder1  2.17927 -3.22297 -26.2668
LeftArm  17.7817 7.88491 -27.4131
LeftForeArm  170.215 -65.8346 -158.203
LeftHand  -0.20882 4.00133 16.7615
RightShoulder  3.06674 5.50634 28.0824
RightArm  -9.40789 -23.7758 11.3037
RightForeArm  136.175 68.1814 151.49
RightHand  -0.921729 1.59141 -15.4312
LeftUpLeg  1.84832 18.4986 42.6887
LeftLeg  7.77674 -20.6219 -1.68655
LeftFoot  6.99903 6.90225 -41.2926
LeftToes  1.24767e-006 1.47042e-008 1.32732e-009
408
root  -7.60056 39.7824 0.660322 88.8388 19.7947 72.1977
RightUpLeg  -39.8974 -46.8418 -39.5282
RightLeg  21.6953 -5.69808 -2.67966
RightFoot  -20.7585 -1.15863 -12.2683
RightToes  -1.46203e-006 3.27826e-006 1.63871e-007
Spine  4.79498 -5.62225 -4.4525
Spine1  12.3257 -1.47081 -15.5498
HEad  -32.0539 54.7794 -49.6975
LeftShoulder1  2.01089 -2.98876 -24.7866
LeftArm  17.9713 6.52525 -29.648
LeftForeArm  169.661 -68.4167 -155.339
LeftHand  -0.254975 3.62065 16.2169
RightShoulder  3.67207 6.00226 32.7411
RightArm  -7.60925 -29.4215 14.829
RightForeArm  139.32 67.6549 152.585
RightHand  -0.880071 2.03508 -13.9014
LeftUpLeg  -12.7325 30.8173 45.1118
LeftLeg  42.4182 -21.2878 -18.9601
LeftFoot  3.52933 5.60893 -41.3973
LeftToes  1.24767e-006 1.47042e-008 1.32732e-009
409
root  -7.93736 40.513 -0.668985 89.3913 21.7967 73.62
RightUpLeg  -34.7735 -46.3229 -42.3119
RightLeg  15.3296 -7.70717 -1.29815
RightFoot  -15.7361 -0.515583 -10.4901
RightToes  -1.46203e-006 3.27826e-006 1.63871e-007
Spine  6.32418 -4.71058 -0.0768896
Spine1  14.1376 1.70992 -19.6575
HEad  -32.269 52.9817 -50.3042
LeftShoulder1  2.11862 -3.16724 -25.5837
LeftArm  17.8995 3.88374 -28.4707
LeftForeArm  162.07 -70.4249 -151.75
LeftHand  -0.231467 3.76842 15.9864
RightShoulder  4.20566 6.46308 36.2836
RightArm  -6.20241 -28.7184 24.0569
RightForeArm  137.265 71.539 146.022
RightHand  -0.90149 2.70189 -13.111
LeftUpLeg  -26.0876 29.0148 41.8259
LeftLeg  72.3186 -8.05747 -25.5614
LeftFoot  2.14263 4.677 -38.2527
LeftToes  1.24767e-006 1.47042e-008 1.32732e-009
410
root  -8.08944 40.8165 -0.749617 89.3142 23.1228 74.9654
RightUpLeg  -28.7019 -43.7007 -46.0256
RightLeg  11.4941 -11.2804 0.461419
RightFoot  -11.8015 -0.116093 -9.32518
RightToes  -1.46203e-006 3.27826e-006 1.63871e-007
Spine  7.8013 -2.79946 1.30656
Spine1  14.0491 5.31333 -24.8411
HEad  -27.2145 51.9155 -47.6451
LeftShoulder1  2.42292 -3.4988 -28.5353
LeftArm  18.3255 4.92539 -25.282
LeftForeArm  160.699 -69.0168 -153.473
LeftHand  -0.224924 3.65712 14.4889
RightShoulder  4.18178 6.51523 35.8314
RightArm  1.01486 -21.4498 29.6457
RightForeArm  130.163 75.809 134.15
RightHand  -0.900585 3.44963 -12.0423
LeftUpLeg  -38.4072 28.6737 32.8327
LeftLeg  92.1436 1.33267 -22.2482
LeftFoot  1.15779 3.42595 -30.6396
LeftToes  1.24767e-006 1.47042e-008 1.32732e-009
411
root  -8.18181 41.0371 -1.03615 89.7952 26.5505 77.7405
RightUpLeg  -23.8339 -42.2343 -47.1988
RightLeg  11.1338 -14.0865 0.608393
RightFoot  -9.24345 0.100955 -8.89068
RightToes  -1.46203e-006 3.27826e-006 1.63871e-007
Spine  9.62466 -0.838541 2.54157
Spine1  13.1744 7.74266 -26.2567
HEad  -21.1193 50.3417 -43.3791
LeftShoulder1  2.46683 -3.54263 -28.9584
LeftArm  19.4306 6.66472 -25.6356
LeftForeArm  163.246 -67.6867 -155.444
LeftHand  -0.181939 3.828 12.7368
RightShoulder  3.78801 6.284 32.8195
RightArm  7.1351 -13.6049 31.777
RightForeArm  131.622 76.2574 132.955
RightHand  -0.815871 3.65623 -10.6995
LeftUpLeg  -51.037 30.8901 19.3199
LeftLeg  108.038 6.61503 -18.2683
LeftFoot  -1.36309 2.55843 -28.659
LeftToes  1.24767e-006 1.47042e-008 1.32732e-009
412
root  -8.08871 41.1866 -1.49549 90.0677 33.2196 80.1234
RightUpLeg  -19.3562 -38.4329 -45.4596
RightLeg  12.8319 -18.3485 0.248877
RightFoot  -8.89247 0.0909418 -6.99249
RightToes  -1.46203e-006 3.27826e-006 1.63871e-007
Spine  11.5742 1.32986 5.76541
Spine1  11.8301 9.61199 -25.1819
HEad  -16.8141 49.1769 -40.3037
LeftShoulder1  2.4672 -3.59273 -28.71
LeftArm  19.8926 7.17894 -26.4235
LeftForeArm  161.301 -68.088 -154.733
LeftHand  -0.13479 4.25684 12.5713
RightShoulder  3.55169 6.10913 31.0569
RightArm  7.83125 -5.47259 32.9046
RightForeArm  129.486 76.6155 131.085
RightHand  -0.795914 3.70579 -10.3921
LeftUpLeg  -60.4716 31.7847 5.34061
LeftLeg  113.415 11.7948 -23.9349
LeftFoot  -1.45205 2.70709 -30.5018
LeftToes  1.24767e-006 1.47042e-008 1.32732e-009
413
root  -7.75542 41.297 -1.49848 91.4927 41.4671 82.4041
RightUpLeg  -15.2347 -31.022 -40.6499
RightLeg  13.3981 -26.4187 -0.349016
RightFoot  -8.58451 0.0330997 -3.84486
RightToes  -1.46203e-006 3.27826e-006 1.63871e-007
Spine  11.7205 3.02064 8.48352
Spine1  10.1699 10.164 -22.803
HEad  -14.945 48.7828 -38.5728
LeftShoulder1  2.57245 -3.69129 -29.7185
LeftArm  19.0653 8.53351 -24.8712
LeftForeArm  158.555 -68.3661 -154.053
LeftHand  -0.145761 4.20208 13.1114
RightShoulder  3.34299 5.99374 29.2724
RightArm  7.57903 3.21715 35.387
RightForeArm  120.653 77.8292 123.332
RightHand  -0.756087 3.40055 -10.2074
LeftUpLeg  -66.6409 31.0291 -6.16252
LeftLeg  108.488 12.4782 -30.752
LeftFoot  2.05992 3.65663 -30.5545
LeftToes  1.24767e-006 1.47042e-008 1.32732e-009
414
root  -7.28012 41.5143 -1.14077 93.4389 48.449 85.424
RightUpLeg  -10.6621 -24.8474 -34.6103
RightLeg  10.8546 -33.3137 -0.463402
RightFoot  -6.9699 0.017833 -1.71652
RightToes  -1.46203e-006 3.27826e-006 1.63871e-007
Spine  10.6766 3.71419 9.69849
Spine1  9.91499 10.3913 -21.5656
HEad  -14.6962 48.7286 -37.7106
LeftShoulder1  2.56578 -3.6806 -29.6788
LeftArm  17.6627 10.2722 -24.3772
LeftForeArm  159.629 -68.8511 -153.572
LeftHand  -0.16711 4.06082 13.6621
RightShoulder  2.96723 5.67006 26.3195
RightArm  8.16446 10.1721 39.4812
RightForeArm  119.854 78.0056 122.18
RightHand  -0.685667 3.01943 -9.67931
LeftUpLeg  -63.7848 29.5137 -11.0294
LeftLeg  98.8728 6.10055 -29.965
LeftFoot  1.22259 3.49014 -31.0694
LeftToes  1.24767e-006 1.47042e-008 1.32732e-009
